<svg width="200" height="31" viewBox="0 0 200 31" fill="none" xmlns="http://www.w3.org/2000/svg">
<path d="M3.87288 24.0456C1.56888 21.7843 0.416875 18.9576 0.416875 15.5656C0.416875 12.1736 1.56888 9.35762 3.87288 7.11762C6.19821 4.85629 9.15288 3.72562 12.7369 3.72562C16.7689 3.72562 19.8622 5.14429 22.0169 7.98162C22.9982 9.24029 23.6915 10.6483 24.0969 12.2056H19.1369C18.8595 11.4803 18.4329 10.819 17.8569 10.2216C16.5129 8.87762 14.8062 8.20562 12.7369 8.20562C10.6462 8.20562 8.91821 8.89896 7.55288 10.2856C6.20888 11.651 5.53688 13.411 5.53688 15.5656C5.53688 17.8056 6.18754 19.5976 7.48888 20.9416C8.81154 22.2643 10.5609 22.9256 12.7369 22.9256C14.9129 22.9256 16.6622 22.179 17.9849 20.6856C18.5822 19.9816 19.0195 19.235 19.2969 18.4456H24.2569C23.7662 20.131 23.0302 21.6243 22.0489 22.9256C19.7449 25.9123 16.6409 27.4056 12.7369 27.4056C9.15288 27.4056 6.19821 26.2856 3.87288 24.0456ZM24.7381 26.7656L30.6581 4.36562H40.7381L46.6581 26.7656H41.6981L40.4181 21.8056H30.9781L29.6981 26.7656H24.7381ZM32.0981 17.3256H39.2981L37.0581 8.84562H34.3381L32.0981 17.3256ZM47.6281 19.7256H52.5881C52.7801 20.3656 53.0895 20.931 53.5161 21.4216C54.4548 22.531 55.8521 23.0856 57.7081 23.0856C60.4815 23.0856 61.8681 22.2323 61.8681 20.5256C61.8681 20.099 61.7188 19.715 61.4201 19.3736C61.1428 19.0323 60.6948 18.7336 60.0761 18.4776C59.4788 18.2216 58.8921 18.019 58.3161 17.8696C57.7615 17.699 57.0361 17.4963 56.1401 17.2616C56.0121 17.2403 55.9055 17.219 55.8201 17.1976C55.7561 17.1763 55.6601 17.155 55.5321 17.1336C55.4255 17.091 55.3295 17.059 55.2441 17.0376C50.8068 15.971 48.5881 13.827 48.5881 10.6056C48.5881 8.68562 49.3668 7.06429 50.9241 5.74162C52.5028 4.39762 54.6041 3.72562 57.2281 3.72562C60.6415 3.72562 63.2228 4.87762 64.9721 7.18162C65.6975 8.20562 66.2095 9.34696 66.5081 10.6056H61.5481C61.4201 10.1576 61.1748 9.73096 60.8121 9.32562C60.0015 8.47229 58.8068 8.04562 57.2281 8.04562C56.0121 8.04562 55.0948 8.28029 54.4761 8.74962C53.8575 9.19762 53.5481 9.76296 53.5481 10.4456C53.5481 11.683 54.9561 12.6216 57.7721 13.2616C58.4975 13.4323 58.9455 13.539 59.1161 13.5816C59.3081 13.6243 59.7455 13.7416 60.4281 13.9336C61.1321 14.1256 61.6015 14.2856 61.8361 14.4136C62.0921 14.5203 62.5081 14.7016 63.0841 14.9576C63.6815 15.1923 64.0975 15.4163 64.3321 15.6296C64.5881 15.843 64.9081 16.131 65.2921 16.4936C65.6975 16.835 65.9855 17.187 66.1561 17.5496C66.3268 17.9123 66.4761 18.339 66.6041 18.8296C66.7535 19.299 66.8281 19.811 66.8281 20.3656C66.8281 22.3496 66.0281 24.0243 64.4281 25.3896C62.8281 26.7336 60.5881 27.4056 57.7081 27.4056C53.9108 27.4056 51.1268 26.1256 49.3561 23.5656C48.5241 22.4563 47.9481 21.1763 47.6281 19.7256ZM70.0331 26.7656V4.36562H74.8331V26.7656H70.0331ZM79.0019 26.7656V4.36562H85.2419L94.0419 20.2056H94.3619L94.0419 17.4856V4.36562H98.8419V26.7656H92.6019L83.8019 10.9256H83.4819L83.8019 13.6456V26.7656H79.0019ZM105.562 23.9816C103.215 21.6776 102.042 18.8723 102.042 15.5656C102.042 12.259 103.215 9.46429 105.562 7.18162C107.93 4.87762 110.863 3.72562 114.362 3.72562C117.861 3.72562 120.783 4.87762 123.13 7.18162C125.498 9.46429 126.682 12.259 126.682 15.5656C126.682 18.8723 125.498 21.6776 123.13 23.9816C120.783 26.2643 117.861 27.4056 114.362 27.4056C110.863 27.4056 107.93 26.2643 105.562 23.9816ZM109.178 10.2856C107.834 11.651 107.162 13.411 107.162 15.5656C107.162 17.7203 107.834 19.491 109.178 20.8776C110.543 22.243 112.271 22.9256 114.362 22.9256C116.453 22.9256 118.17 22.243 119.514 20.8776C120.879 19.491 121.562 17.7203 121.562 15.5656C121.562 13.411 120.879 11.651 119.514 10.2856C118.17 8.89896 116.453 8.20562 114.362 8.20562C112.271 8.20562 110.543 8.89896 109.178 10.2856ZM137.566 19.7256H142.526C142.718 20.3656 143.027 20.931 143.454 21.4216C144.392 22.531 145.79 23.0856 147.646 23.0856C150.419 23.0856 151.806 22.2323 151.806 20.5256C151.806 20.099 151.656 19.715 151.358 19.3736C151.08 19.0323 150.632 18.7336 150.014 18.4776C149.416 18.2216 148.83 18.019 148.254 17.8696C147.699 17.699 146.974 17.4963 146.078 17.2616C145.95 17.2403 145.843 17.219 145.758 17.1976C145.694 17.1763 145.598 17.155 145.47 17.1336C145.363 17.091 145.267 17.059 145.182 17.0376C140.744 15.971 138.526 13.827 138.526 10.6056C138.526 8.94162 139.144 7.48029 140.382 6.22162C141.619 4.94162 143.294 4.15229 145.406 3.85362V0.845623H149.886V4.01362C152.296 4.58962 154.12 5.84829 155.358 7.78962C155.87 8.62162 156.232 9.56029 156.446 10.6056H151.486C151.358 10.1576 151.112 9.73096 150.75 9.32562C149.939 8.47229 148.744 8.04562 147.166 8.04562C145.95 8.04562 145.032 8.28029 144.414 8.74962C143.795 9.19762 143.486 9.76296 143.486 10.4456C143.486 11.683 144.894 12.6216 147.71 13.2616C148.435 13.4323 148.883 13.539 149.054 13.5816C149.246 13.6243 149.683 13.7416 150.366 13.9336C151.07 14.1256 151.539 14.2856 151.774 14.4136C152.03 14.5203 152.446 14.7016 153.022 14.9576C153.619 15.1923 154.035 15.4163 154.27 15.6296C154.526 15.843 154.846 16.131 155.23 16.4936C155.635 16.835 155.923 17.187 156.094 17.5496C156.264 17.9123 156.414 18.339 156.542 18.8296C156.691 19.299 156.766 19.811 156.766 20.3656C156.766 22.051 156.158 23.5443 154.942 24.8456C153.726 26.1256 152.04 26.9256 149.886 27.2456V30.2856H145.406V27.2136C142.568 26.7016 140.414 25.315 138.942 23.0536C138.28 22.051 137.822 20.9416 137.566 19.7256ZM158.691 19.7256H163.651C163.843 20.3656 164.152 20.931 164.579 21.4216C165.517 22.531 166.915 23.0856 168.771 23.0856C171.544 23.0856 172.931 22.2323 172.931 20.5256C172.931 20.099 172.781 19.715 172.483 19.3736C172.205 19.0323 171.757 18.7336 171.139 18.4776C170.541 18.2216 169.955 18.019 169.379 17.8696C168.824 17.699 168.099 17.4963 167.203 17.2616C167.075 17.2403 166.968 17.219 166.883 17.1976C166.819 17.1763 166.723 17.155 166.595 17.1336C166.488 17.091 166.392 17.059 166.307 17.0376C161.869 15.971 159.651 13.827 159.651 10.6056C159.651 8.94162 160.269 7.48029 161.507 6.22162C162.744 4.94162 164.419 4.15229 166.531 3.85362V0.845623H171.011V4.01362C173.421 4.58962 175.245 5.84829 176.483 7.78962C176.995 8.62162 177.357 9.56029 177.571 10.6056H172.611C172.483 10.1576 172.237 9.73096 171.875 9.32562C171.064 8.47229 169.869 8.04562 168.291 8.04562C167.075 8.04562 166.157 8.28029 165.539 8.74962C164.92 9.19762 164.611 9.76296 164.611 10.4456C164.611 11.683 166.019 12.6216 168.835 13.2616C169.56 13.4323 170.008 13.539 170.179 13.5816C170.371 13.6243 170.808 13.7416 171.491 13.9336C172.195 14.1256 172.664 14.2856 172.899 14.4136C173.155 14.5203 173.571 14.7016 174.147 14.9576C174.744 15.1923 175.16 15.4163 175.395 15.6296C175.651 15.843 175.971 16.131 176.355 16.4936C176.76 16.835 177.048 17.187 177.219 17.5496C177.389 17.9123 177.539 18.339 177.667 18.8296C177.816 19.299 177.891 19.811 177.891 20.3656C177.891 22.051 177.283 23.5443 176.067 24.8456C174.851 26.1256 173.165 26.9256 171.011 27.2456V30.2856H166.531V27.2136C163.693 26.7016 161.539 25.315 160.067 23.0536C159.405 22.051 158.947 20.9416 158.691 19.7256ZM179.816 19.7256H184.776C184.968 20.3656 185.277 20.931 185.704 21.4216C186.642 22.531 188.04 23.0856 189.896 23.0856C192.669 23.0856 194.056 22.2323 194.056 20.5256C194.056 20.099 193.906 19.715 193.608 19.3736C193.33 19.0323 192.882 18.7336 192.264 18.4776C191.666 18.2216 191.08 18.019 190.504 17.8696C189.949 17.699 189.224 17.4963 188.328 17.2616C188.2 17.2403 188.093 17.219 188.008 17.1976C187.944 17.1763 187.848 17.155 187.72 17.1336C187.613 17.091 187.517 17.059 187.432 17.0376C182.994 15.971 180.776 13.827 180.776 10.6056C180.776 8.94162 181.394 7.48029 182.632 6.22162C183.869 4.94162 185.544 4.15229 187.656 3.85362V0.845623H192.136V4.01362C194.546 4.58962 196.37 5.84829 197.608 7.78962C198.12 8.62162 198.482 9.56029 198.696 10.6056H193.736C193.608 10.1576 193.362 9.73096 193 9.32562C192.189 8.47229 190.994 8.04562 189.416 8.04562C188.2 8.04562 187.282 8.28029 186.664 8.74962C186.045 9.19762 185.736 9.76296 185.736 10.4456C185.736 11.683 187.144 12.6216 189.96 13.2616C190.685 13.4323 191.133 13.539 191.304 13.5816C191.496 13.6243 191.933 13.7416 192.616 13.9336C193.32 14.1256 193.789 14.2856 194.024 14.4136C194.28 14.5203 194.696 14.7016 195.272 14.9576C195.869 15.1923 196.285 15.4163 196.52 15.6296C196.776 15.843 197.096 16.131 197.48 16.4936C197.885 16.835 198.173 17.187 198.344 17.5496C198.514 17.9123 198.664 18.339 198.792 18.8296C198.941 19.299 199.016 19.811 199.016 20.3656C199.016 22.051 198.408 23.5443 197.192 24.8456C195.976 26.1256 194.29 26.9256 192.136 27.2456V30.2856H187.656V27.2136C184.818 26.7016 182.664 25.315 181.192 23.0536C180.53 22.051 180.072 20.9416 179.816 19.7256Z" fill="#F33A00"/>
</svg>
